# Blender v2.80 (sub 75) OBJ File: ''
# www.blender.org
mtllib Middle.mtl
o Middle_3d-model.002
v -232.886398 13.781689 48.060188
v -232.886398 13.781689 57.209560
v -287.096039 13.781685 70.468765
v -287.096039 13.781685 74.529961
v -277.946686 13.781685 74.529961
v -277.946686 13.781685 70.468765
v -287.096039 13.781689 48.060188
v -287.096039 13.781681 102.269836
v -277.946686 13.781689 57.209560
v -277.946686 13.781681 102.269836
v -291.202850 13.781685 74.529961
v -291.202850 13.781685 70.468765
v -287.986786 14.876785 70.468765
v -287.986786 14.876785 74.529961
v -276.279938 14.876785 74.529961
v -276.279938 14.876785 70.468765
v -273.580322 14.410458 70.468765
v -273.580322 14.410458 74.529961
v -232.886398 13.781712 48.060188
v -232.886398 13.781712 57.209560
v -187.826126 13.781708 70.468765
v -187.826126 13.781708 74.529961
v -178.676758 13.781708 74.529961
v -178.676758 13.781708 70.468765
v -178.676758 13.781712 48.060188
v -178.676758 13.781731 102.269836
v -187.826126 13.781712 57.209560
v -187.826126 13.781731 102.269836
v -174.569946 13.781708 70.468765
v -174.569946 13.781708 74.529961
v -189.492844 14.876785 70.468765
v -189.492844 14.876785 74.529961
v -177.786026 14.876785 74.529961
v -177.786026 14.876785 70.468765
v -192.192474 14.410458 70.468765
v -192.192474 14.410458 74.529961
v -232.886398 13.781673 156.479462
v -232.886398 13.781673 147.330078
v -178.676727 13.781677 134.070908
v -178.676727 13.781677 130.009705
v -187.826126 13.781677 130.009705
v -187.826126 13.781677 134.070892
v -178.676758 13.781673 156.479492
v -178.676727 13.781681 102.269836
v -187.826126 13.781673 147.330109
v -187.826096 13.781681 102.269836
v -174.569916 13.781677 130.009705
v -174.569916 13.781677 134.070908
v -177.785995 14.876778 134.070908
v -177.785995 14.876778 130.009720
v -189.492844 14.876778 130.009720
v -189.492844 14.876778 134.070892
v -192.192474 14.410450 134.070892
v -192.192474 14.410450 130.009720
v -232.886398 13.781696 156.479507
v -232.886398 13.781696 147.330139
v -277.946655 13.781700 134.070908
v -277.946655 13.781700 130.009735
v -287.096008 13.781700 130.009705
v -287.096008 13.781700 134.070908
v -287.096039 13.781696 156.479492
v -287.096008 13.781731 102.269836
v -277.946655 13.781696 147.330109
v -277.946625 13.781731 102.269859
v -291.202820 13.781700 134.070908
v -291.202820 13.781700 130.009705
v -276.279907 14.876778 134.070908
v -276.279907 14.876778 130.009735
v -287.986755 14.876778 130.009720
v -287.986786 14.876778 134.070908
v -273.580292 14.410450 134.070908
v -273.580292 14.410450 130.009735
vt -2.347200 2.947300
vt -2.347200 3.120300
vt -1.848500 3.120300
vt -1.848500 2.947300
vt 3.120300 1.462200
vt 3.120300 1.212300
vt 2.947300 1.212300
vt 2.947300 1.462200
vt -2.947300 -1.516300
vt -3.120300 -1.516300
vt -3.120300 -1.370900
vt -2.947300 -1.370900
vt -2.309300 2.606000
vt -2.309300 3.854400
vt -1.919500 3.854400
vt -1.919500 3.115700
vt -0.000000 3.115700
vt -0.000000 2.606000
vt -2.309300 4.080600
vt -2.309300 5.626000
vt -1.919500 5.626000
vt -1.919500 4.080600
vt -2.347200 2.947300
vt -2.347200 3.120300
vt -1.848500 3.120300
vt -1.848500 2.947300
vt 3.120300 1.462200
vt 3.120300 1.212300
vt 2.947300 1.212300
vt 2.947300 1.462200
vt -2.947300 -1.516300
vt -3.120300 -1.516300
vt -3.120300 -1.370900
vt -2.947300 -1.370900
vt -2.309300 2.606000
vt -2.309300 3.854400
vt -1.919500 3.854400
vt -1.919500 3.115700
vt -0.000000 3.115700
vt -0.000000 2.606000
vt -2.309300 4.080600
vt -2.309300 5.626000
vt -1.919500 5.626000
vt -1.919500 4.080600
vt -1.848500 2.947300
vt -1.848500 3.120300
vt -2.347200 3.120300
vt -2.347200 2.947300
vt 2.947300 1.462200
vt 2.947300 1.212300
vt 3.120300 1.212300
vt 3.120300 1.462200
vt -2.947300 -1.370900
vt -3.120300 -1.370900
vt -3.120300 -1.516300
vt -2.947300 -1.516300
vt -1.919500 3.115700
vt -1.919500 3.854400
vt -2.309300 3.854400
vt -2.309300 2.606000
vt -0.000000 2.606000
vt -0.000000 3.115700
vt -1.919500 4.080600
vt -1.919500 5.626000
vt -2.309300 5.626000
vt -2.309300 4.080600
vt -1.848500 2.947300
vt -1.848500 3.120300
vt -2.347200 3.120300
vt -2.347200 2.947300
vt 2.947300 1.462200
vt 2.947300 1.212300
vt 3.120300 1.212300
vt 3.120300 1.462200
vt -2.947300 -1.370900
vt -3.120300 -1.370900
vt -3.120300 -1.516300
vt -2.947300 -1.516300
vt -1.919500 3.115700
vt -1.919500 3.854400
vt -2.309300 3.854400
vt -2.309300 2.606000
vt -0.000000 2.606000
vt -0.000000 3.115700
vt -1.919500 4.080600
vt -1.919500 5.626000
vt -2.309300 5.626000
vt -2.309300 4.080600
vn 0.0000 1.0000 0.0000
vn -0.8363 0.5482 -0.0000
vn 0.6120 0.7908 -0.0000
vn 0.8363 0.5482 0.0000
vn -0.6120 0.7908 0.0000
usemtl wire_229166215
s 1
f 13/1/1 14/2/1 15/3/1 16/4/1
f 11/5/2 14/6/2 13/7/2 12/8/2
f 16/9/3 15/10/3 18/11/3 17/12/3
f 7/13/1 3/14/1 6/15/1 9/16/1
f 2/17/1 1/18/1 7/13/1 9/16/1
f 4/19/1 8/20/1 10/21/1 5/22/1
f 49/23/1 50/24/1 51/25/1 52/26/1
f 47/27/4 50/28/4 49/29/4 48/30/4
f 52/31/5 51/32/5 54/33/5 53/34/5
f 43/35/1 39/36/1 42/37/1 45/38/1
f 38/39/1 37/40/1 43/35/1 45/38/1
f 40/41/1 44/42/1 46/43/1 41/44/1
usemtl wire_087224198
f 31/45/1 32/46/1 33/47/1 34/48/1
f 29/49/4 34/50/4 33/51/4 30/52/4
f 35/53/5 36/54/5 32/55/5 31/56/5
f 27/57/1 21/58/1 24/59/1 25/60/1
f 27/57/1 25/60/1 19/61/1 20/62/1
f 22/63/1 28/64/1 26/65/1 23/66/1
usemtl wire_134110008
f 67/67/1 68/68/1 69/69/1 70/70/1
f 65/71/2 70/72/2 69/73/2 66/74/2
f 71/75/3 72/76/3 68/77/3 67/78/3
f 63/79/1 57/80/1 60/81/1 61/82/1
f 63/79/1 61/82/1 55/83/1 56/84/1
f 58/85/1 64/86/1 62/87/1 59/88/1
