# Blender v2.80 (sub 75) OBJ File: ''
# www.blender.org
mtllib mars_terrain.mtl
o Plane_Plane.001
v -25.800001 0.467395 -11.781816
v -25.800001 1.910082 -5.890908
v -25.800001 1.334799 0.000000
v -25.800001 0.642934 5.890909
v -25.800001 1.202398 11.781817
v -25.800001 1.334799 21.599998
v -19.802729 0.346810 21.599998
v -13.805454 2.000085 21.599998
v -7.808181 2.326483 21.599998
v 0.188183 0.720149 21.599998
v 8.184547 -0.018413 21.599998
v 18.180002 1.334799 21.599998
v 18.180002 0.597650 11.781816
v 18.180002 0.292496 3.927272
v 18.180002 2.212338 -3.927273
v 18.180002 1.025647 -11.781817
v 18.180002 1.334799 -21.599998
v 10.183638 0.948872 -21.599998
v 4.186364 0.964833 -21.599998
v -1.810909 -0.582363 -21.599998
v -7.808182 4.567482 -21.599998
v -15.804546 0.873063 -21.599998
v -25.800001 1.334759 -21.599998
v -21.801819 0.364298 -5.890909
v -21.801819 2.210768 -17.672726
v -19.802729 1.547329 15.709090
v -19.802729 0.880230 7.854545
v -19.802729 2.385251 0.981818
v -19.802729 2.178547 -11.781817
v -13.805454 2.521445 11.781816
v -13.805454 -0.310946 3.927272
v -15.804544 0.741483 -3.927273
v -13.805454 0.972173 -11.781817
v -15.804544 2.069823 -17.672726
v -11.806363 0.971295 17.672726
v -9.807272 -1.636334 7.854545
v -7.808181 1.045291 13.745453
v -7.808181 2.173187 -0.000000
v -7.808181 0.107889 -5.890909
v -7.808181 0.372742 -11.781817
v -7.808182 0.496576 -17.672726
v -3.809999 0.352418 17.672726
v -3.809999 1.976875 7.854545
v 1.187728 2.126571 15.709090
v 2.187274 1.574483 7.854545
v 0.188183 0.445459 -0.000000
v 0.188183 0.343329 -5.890909
v 0.188183 0.894444 -11.781817
v 0.188182 2.000966 -17.672726
v 8.184547 0.073069 17.672726
v 8.184547 2.087618 11.781816
v 8.184547 0.702038 3.927272
v 8.184547 0.138027 -3.927273
v 8.184547 0.903140 -11.781817
v 8.184546 1.801974 -17.672726
v 14.181820 0.299795 17.672726
v 14.181820 2.890088 11.781816
v 14.181820 2.144281 3.927272
v 14.181820 -0.363491 -3.927273
v 14.181820 1.787672 -11.781817
v 14.181820 1.231112 -17.672726
vt 0.227273 0.909091
vt 0.000000 1.000000
vt 0.090909 0.909091
vt 0.409091 1.000000
vt 0.227273 1.000000
vt 0.590909 0.909091
vt 0.409091 0.909091
vt 0.772727 0.909091
vt 0.681818 1.000000
vt 0.909091 0.909091
vt 0.818182 1.000000
vt 0.136364 0.136364
vt 0.000000 0.227273
vt 0.000000 0.000000
vt 0.136364 0.318182
vt 0.000000 0.363636
vt 0.000000 0.500000
vt 0.136364 0.477273
vt 0.000000 0.636364
vt 0.090909 0.636364
vt 0.000000 0.772727
vt 0.136364 0.772727
vt 0.227273 0.590909
vt 0.272727 0.000000
vt 0.136364 0.000000
vt 0.272727 0.227273
vt 0.272727 0.409091
vt 0.272727 0.772727
vt 0.409091 0.000000
vt 0.318182 0.090909
vt 0.363636 0.318182
vt 0.409091 0.500000
vt 0.409091 0.636364
vt 0.409091 0.772727
vt 0.500000 0.318182
vt 0.500000 0.090909
vt 0.613636 0.136364
vt 0.409091 0.181818
vt 0.590909 0.500000
vt 0.590909 0.636364
vt 0.590909 0.000000
vt 0.636364 0.318182
vt 0.772727 0.000000
vt 0.772727 0.227273
vt 0.772727 0.409091
vt 0.772727 0.590909
vt 0.590909 0.772727
vt 1.000000 0.000000
vt 0.772727 0.090909
vt 0.909091 0.090909
vt 0.909091 0.227273
vt 0.909091 0.409091
vt 0.909091 0.590909
vt 0.772727 0.772727
vt 0.909091 0.772727
vt 1.000000 0.227273
vt 1.000000 0.409091
vt 1.000000 0.590909
vt 1.000000 0.772727
vt 0.545455 1.000000
vt 1.000000 1.000000
vn 0.0228 0.9706 -0.2397
vn -0.4042 0.8749 -0.2666
vn -0.1295 0.6884 0.7136
vn 0.0242 0.9724 -0.2319
vn 0.0934 0.9817 -0.1657
vn -0.0486 0.9987 -0.0135
vn -0.0084 0.9955 -0.0945
vn -0.0773 0.9902 0.1163
vn -0.1869 0.9777 0.0955
vn 0.3516 0.9093 -0.2227
vn -0.2734 0.9582 0.0846
vn 0.0353 0.9560 -0.2914
vn -0.1413 0.9586 0.2473
vn -0.2608 0.9460 0.1928
vn -0.2123 0.9737 -0.0827
vn 0.3169 0.9265 0.2029
vn 0.4016 0.9156 0.0205
vn 0.1959 0.9739 0.1150
vn -0.0522 0.9592 -0.2778
vn 0.5421 0.7905 -0.2851
vn -0.2644 0.9447 0.1939
vn 0.0917 0.9944 0.0525
vn 0.0983 0.9838 0.1499
vn -0.4964 0.8240 0.2733
vn -0.1871 0.9170 0.3523
vn -0.1333 0.9889 0.0659
vn 0.2105 0.9741 -0.0828
vn 0.1998 0.9247 -0.3242
vn -0.0294 0.9986 0.0449
vn -0.1849 0.9825 0.0207
vn -0.2650 0.9471 0.1811
vn 0.0661 0.9852 -0.1584
vn 0.0892 0.9653 0.2456
vn -0.0364 0.9965 -0.0747
vn 0.0435 0.9873 -0.1530
vn 0.0299 0.9994 -0.0173
vn 0.0027 0.9956 0.0931
vn 0.0245 0.9825 0.1846
vn -0.1341 0.9907 0.0231
vn -0.0357 0.9456 0.3234
vn -0.1306 0.9764 -0.1722
vn -0.2332 0.9699 -0.0696
vn 0.0829 0.9919 0.0966
vn -0.1443 0.9782 0.1493
vn -0.5345 0.7737 0.3402
vn 0.4957 0.8646 -0.0821
vn 0.4037 0.8716 -0.2783
vn -0.5278 0.8192 0.2244
vn 0.1864 0.9781 -0.0924
vn 0.0441 0.9556 -0.2912
vn 0.1353 0.6879 0.7131
vn 0.5011 0.5836 -0.6390
vn -0.2226 0.8627 -0.4542
vn 0.0026 0.9775 -0.2110
vn -0.0482 0.9986 -0.0227
vn 0.1594 0.9673 0.1971
vn -0.0019 0.9964 -0.0846
vn -0.2019 0.9567 0.2095
vn 0.3372 0.8721 -0.3545
vn -0.2689 0.9424 0.1990
vn -0.3171 0.9417 0.1127
vn 0.0235 0.9997 -0.0025
vn 0.1180 0.9737 -0.1950
vn 0.0078 0.9677 0.2520
vn -0.0353 0.9401 -0.3390
vn 0.1966 0.9773 0.0787
vn 0.1737 0.9653 0.1951
vn 0.3554 0.7994 -0.4845
vn -0.1049 0.9050 0.4122
vn -0.0065 0.9437 -0.3308
vn 0.0994 0.9940 0.0447
vn 0.1930 0.9810 0.0206
vn 0.0711 0.9184 -0.3893
vn 0.0768 0.9923 0.0969
vn -0.5045 0.8375 -0.2100
vn 0.1890 0.9410 -0.2806
vn -0.0294 0.9994 -0.0173
vn -0.0648 0.9936 0.0930
vn -0.0640 0.9808 0.1842
vn 0.0668 0.9959 -0.0615
vn 0.2758 0.9610 0.0224
vn 0.1837 0.9301 0.3181
vn 0.0295 0.9844 -0.1736
vn 0.0032 0.9974 -0.0716
vn -0.0011 0.9953 0.0970
vn -0.0011 0.9886 0.1508
vn -0.0369 0.9749 -0.2194
vn -0.1216 0.9086 0.3995
vn -0.2328 0.9682 -0.0919
vn 0.0794 0.9496 -0.3032
vn -0.1408 0.9549 0.2615
vn 0.0943 0.9911 -0.0936
vn 0.4964 0.8657 -0.0650
vn 0.4200 0.9068 -0.0352
vn -0.5305 0.8234 0.2013
vn 0.1852 0.9717 -0.1468
vn 0.0050 0.9995 0.0315
usemtl None
s off
f 34/1/1 23/2/1 25/3/1
f 34/1/2 21/4/2 22/5/2
f 49/6/3 21/4/3 41/7/3
f 55/8/4 19/9/4 49/6/4
f 61/10/5 18/11/5 55/8/5
f 26/12/6 5/13/6 6/14/6
f 27/15/7 4/16/7 5/13/7
f 27/15/8 3/17/8 4/16/8
f 28/18/9 2/19/9 3/17/9
f 24/20/10 1/21/10 2/19/10
f 29/22/11 23/2/11 1/21/11
f 32/23/12 24/20/12 28/18/12
f 32/23/13 29/22/13 24/20/13
f 8/24/14 26/12/14 7/25/14
f 30/26/15 27/15/15 26/12/15
f 31/27/16 28/18/16 27/15/16
f 31/27/17 32/23/17 28/18/17
f 33/28/18 34/1/18 29/22/18
f 9/29/19 35/30/19 8/24/19
f 36/31/20 31/27/20 30/26/20
f 38/32/21 32/23/21 31/27/21
f 39/33/22 33/28/22 32/23/22
f 40/34/23 34/1/23 33/28/23
f 43/35/24 38/32/24 36/31/24
f 42/36/25 44/37/25 37/38/25
f 44/37/26 43/35/26 37/38/26
f 43/35/27 46/39/27 38/32/27
f 46/39/28 39/33/28 38/32/28
f 47/40/29 40/34/29 39/33/29
f 40/34/30 49/6/30 41/7/30
f 10/41/31 44/37/31 42/36/31
f 45/42/32 46/39/32 43/35/32
f 11/43/33 44/37/33 10/41/33
f 51/44/34 45/42/34 44/37/34
f 52/45/35 46/39/35 45/42/35
f 53/46/36 47/40/36 46/39/36
f 53/46/37 48/47/37 47/40/37
f 48/47/38 55/8/38 49/6/38
f 12/48/39 50/49/39 11/43/39
f 56/50/40 51/44/40 50/49/40
f 57/51/41 52/45/41 51/44/41
f 58/52/42 53/46/42 52/45/42
f 59/53/43 54/54/43 53/46/43
f 60/55/44 55/8/44 54/54/44
f 12/48/45 57/51/45 56/50/45
f 13/56/46 58/52/46 57/51/46
f 14/57/47 59/53/47 58/52/47
f 15/58/48 60/55/48 59/53/48
f 16/59/49 61/10/49 60/55/49
f 34/1/50 22/5/50 23/2/50
f 34/1/51 41/7/51 21/4/51
f 49/6/52 20/60/52 21/4/52
f 49/6/53 19/9/53 20/60/53
f 55/8/54 18/11/54 19/9/54
f 61/10/55 17/61/55 18/11/55
f 7/25/56 26/12/56 6/14/56
f 26/12/57 27/15/57 5/13/57
f 27/15/58 28/18/58 3/17/58
f 28/18/59 24/20/59 2/19/59
f 24/20/60 29/22/60 1/21/60
f 29/22/61 25/3/61 23/2/61
f 29/22/62 34/1/62 25/3/62
f 8/24/63 35/30/63 26/12/63
f 35/30/64 30/26/64 26/12/64
f 30/26/65 31/27/65 27/15/65
f 32/23/66 33/28/66 29/22/66
f 35/30/67 37/38/67 30/26/67
f 37/38/68 36/31/68 30/26/68
f 36/31/69 38/32/69 31/27/69
f 38/32/70 39/33/70 32/23/70
f 39/33/71 40/34/71 33/28/71
f 40/34/72 41/7/72 34/1/72
f 9/29/73 42/36/73 35/30/73
f 35/30/74 42/36/74 37/38/74
f 37/38/75 43/35/75 36/31/75
f 9/29/76 10/41/76 42/36/76
f 46/39/77 47/40/77 39/33/77
f 47/40/78 48/47/78 40/34/78
f 40/34/79 48/47/79 49/6/79
f 44/37/80 45/42/80 43/35/80
f 11/43/81 50/49/81 44/37/81
f 50/49/82 51/44/82 44/37/82
f 51/44/83 52/45/83 45/42/83
f 52/45/84 53/46/84 46/39/84
f 53/46/85 54/54/85 48/47/85
f 48/47/86 54/54/86 55/8/86
f 12/48/87 56/50/87 50/49/87
f 56/50/88 57/51/88 51/44/88
f 57/51/89 58/52/89 52/45/89
f 58/52/90 59/53/90 53/46/90
f 59/53/91 60/55/91 54/54/91
f 60/55/92 61/10/92 55/8/92
f 12/48/93 13/56/93 57/51/93
f 13/56/94 14/57/94 58/52/94
f 14/57/95 15/58/95 59/53/95
f 15/58/96 16/59/96 60/55/96
f 16/59/97 17/61/97 61/10/97
